<?xml version="1.0" encoding="UTF-8" standalone="no"?>
<svg
   xmlns:dc="http://purl.org/dc/elements/1.1/"
   xmlns:cc="http://creativecommons.org/ns#"
   xmlns:rdf="http://www.w3.org/1999/02/22-rdf-syntax-ns#"
   xmlns:svg="http://www.w3.org/2000/svg"
   xmlns="http://www.w3.org/2000/svg"
   version="1.1"
   id="svg901"
   width="979.64001"
   height="947.8573"
   viewBox="0 0 979.64001 947.8573">
  <metadata
     id="metadata907">
    <rdf:RDF>
      <cc:Work
         rdf:about="">
        <dc:format>image/svg+xml</dc:format>
        <dc:type
           rdf:resource="http://purl.org/dc/dcmitype/StillImage" />
        <dc:title></dc:title>
      </cc:Work>
    </rdf:RDF>
  </metadata>
  <defs
     id="defs905" />
  <g
     id="g909"
     transform="translate(-6.472147,-2.8430097)">
    <path
       style="fill:#000000;fill-opacity:1"
       d="m 461.33214,845.20031 v -105.5 h 35 35 v 105.5 105.5 h -35 -35 z M 76.700942,881.19473 c -15.84469,-7.97807 -29.40176,-15.09882 -30.12683,-15.82389 -1.09108,-1.09108 6.6176,-17.16311 44.723136,-93.24442 25.322792,-50.55936 46.853282,-92.97026 47.845522,-94.24644 l 1.80407,-2.32032 12.51656,4.99354 c 6.88411,2.74645 19.6833,7.55408 28.44265,10.68362 8.75935,3.12955 17.16359,6.13312 18.67609,6.67461 1.5125,0.54149 2.75,1.41344 2.75,1.93767 0,2.46724 -45.5171,96.99434 -75.91472,157.65499 -11.3439,22.63756 -19.70412,38.19622 -20.52422,38.19622 -0.76106,0 -14.347572,-6.52751 -30.192258,-14.50558 z m 799.476918,-1.74442 c -40.52232,-80.63709 -86.84571,-176.40416 -86.84571,-179.54125 0,-0.5572 1.2375,-1.46089 2.75,-2.00819 1.5125,-0.54729 10.175,-3.6805 19.25,-6.96267 9.075,-3.28218 21.6371,-8.07525 27.91577,-10.65126 9.29292,-3.8127 11.64428,-4.44219 12.64461,-3.38515 1.97861,2.0908 23.22974,43.32095 60.66044,117.68968 29.36162,58.33679 34.70984,69.60675 33.57217,70.74443 -1.81157,1.81156 -58.58526,30.36441 -60.37576,30.36441 -0.81459,0 -4.83851,-6.83158 -9.57152,-16.25 z M 437.33214,633.63136 c -68.43104,-2.28971 -160.46025,-17.61643 -227,-37.80503 C 124.20991,569.69628 59.524882,530.68474 26.823872,485.15251 c -48.01031,-66.84859 -9.51906,-143.22734 99.008268,-196.46358 25.3493,-12.43467 64.32091,-28.10441 82,-32.97065 4.4,-1.21111 8.49596,-2.72311 9.10214,-3.36 0.60618,-0.63688 1.86615,-6.41206 2.79995,-12.83372 2.09271,-14.39159 6.26135,-31.11572 12.15041,-48.74617 9.6361,-28.84818 21.3538,-50.85244 40.60688,-76.25424 18.62693,-24.575688 46.95818,-51.375041 71.67078,-67.795481 28.77549,-19.120053 67.2418,-34.052184 107.16984,-41.6019677 11.52099,-2.178444 54.8929,-3.0649809 71.90047,-1.469671 66.17226,6.20696 123.9729,33.5765007 171.09953,81.0183917 40.92565,41.199438 69.01425,95.769828 78.04324,151.622018 1.14722,7.09658 2.68796,13.83261 3.42386,14.96895 0.89481,1.38173 4.43419,2.98867 10.68546,4.85137 19.43273,5.79041 60.57365,22.41334 81.7222,33.01974 64.26199,32.22859 104.92243,72.84265 115.19423,115.06281 8.9133,36.63628 -4.15113,71.96754 -39.21001,106.03907 -19.25372,18.71148 -39.8618,32.93815 -70.54177,48.69811 -70.77979,36.35879 -167.26059,61.49201 -277.31721,72.24105 -32.17028,3.14202 -104.87999,4.26368 -159,2.45282 z m 71.82495,-70.45171 c 9.35658,-2.2058 16.79868,-6.26297 23.16379,-12.62808 9.7677,-9.7677 16.01126,-24.45588 16.01126,-37.66701 0,-31.44973 -28.71845,-56.16233 -59.67353,-51.34985 -20.23774,3.14629 -37.68242,18.80233 -42.93634,38.53399 -2.20198,8.26974 -1.75558,20.97674 1.01241,28.8188 4.45874,12.6322 14.71735,25.2036 24.83724,30.43681 9.37489,4.84794 26.09826,6.56336 37.58517,3.85534 z M 212.90383,492.68197 c 9.62413,-2.46143 17.17859,-6.85553 23.15199,-13.46648 16.4796,-18.23851 19.09284,-43.17544 6.67244,-63.67222 -4.30487,-7.10412 -13.6762,-15.85438 -20.61597,-19.2497 -18.01218,-8.81254 -38.75164,-6.77175 -54.92374,5.40455 -11.96171,9.00622 -19.68132,23.26708 -20.6158,38.08468 -0.59463,9.4289 0.83042,16.27624 5.33762,25.64709 11.08265,23.04178 35.24476,33.83749 60.99346,27.25208 z m 593.55939,0.57809 c 16.84471,-3.57041 30.81453,-16.46233 36.85098,-34.00757 9.94284,-28.89939 -9.45029,-62.13805 -39.48205,-67.66987 -16.88022,-3.10931 -35.87303,3.35186 -48.19681,16.39609 -9.63032,10.19332 -13.57685,20.54862 -13.61393,35.7216 -0.0537,21.96357 13.84237,41.14905 34.70218,47.91134 10.47434,3.39555 19.21196,3.87986 29.73963,1.64841 z M 394.33214,343.24738 c 0,-0.79912 -2.05928,-6.98662 -4.57618,-13.75 -10.47278,-28.14233 -12.81546,-41.24905 -12.83291,-71.79707 -0.0106,-18.60651 0.29119,-22.89617 2.24265,-31.8742 4.52718,-20.82808 13.62301,-37.63124 28.43275,-52.52514 12.1906,-12.25989 26.45598,-21.16299 44.77702,-27.94555 33.33736,-12.34171 65.77234,-10.61793 99.45667,5.28568 33.48222,15.80819 51.59726,37.93999 61.17545,74.74026 2.68296,10.30816 2.81611,11.88124 2.82023,33.31895 0.005,28.51322 -1.67196,37.42218 -13.41588,71.25258 -2.24389,6.46391 -4.0798,12.48758 -4.0798,13.38592 0,2.10836 4.8534,1.49739 21.35608,-2.68838 29.41853,-7.46177 57.5371,-18.58621 78.88494,-31.20894 l 8.74102,-5.16846 -0.54783,-10.03636 c -1.37234,-25.14208 -2.58639,-39.71992 -4.00046,-48.03636 C 693.59558,192.26798 663.95733,144.55475 619.8447,112.70938 590.49527,91.521712 560.85456,79.187672 528.50667,74.701952 c -14.34401,-1.989102 -39.79422,-3.011665 -51.36812,-2.06392 -38.96713,3.19088 -81.48601,20.670246 -113.80641,46.785438 -8.89467,7.18698 -26.69907,25.33038 -33.14575,33.77684 -13.81767,18.10399 -25.73533,40.7362 -32.9112,62.5 -8.13479,24.67209 -11.2834,46.17807 -10.75315,73.44733 l 0.3101,15.94732 6.5,3.86828 c 24.67668,14.68556 57.63033,27.04162 93.5,35.05809 4.4201,0.98784 7.5,0.67002 7.5,-0.77395 z m 75.32881,-21.9111 c 8.42512,-3.52024 10.95956,-12.18658 6.27021,-21.44056 -4.04359,-7.97964 -21.51012,-24.04844 -31.90416,-29.35108 -6.27178,-3.19963 -18.57929,-5.91265 -27.83527,-6.13591 -7.41144,-0.17878 -8.95502,0.0757 -10.85238,1.78922 -8.21137,7.41572 -6.34991,18.1192 5.42969,31.22095 15.9628,17.75448 45.21194,29.63324 58.89191,23.91738 z m 78.89652,-2.37321 c 22.2868,-7.68193 43.80907,-28.19555 43.75993,-41.7091 -0.021,-5.76505 -1.84112,-8.72516 -6.95055,-11.30366 -17.69286,-8.9288 -58.47081,11.65205 -68.97822,34.81368 -3.75937,8.28683 -2.109,15.52649 4.58481,20.11208 4.18567,2.86739 16.11549,2.04004 27.58403,-1.913 z"
       id="path947" />
  </g>
</svg>
