<?xml version="1.0" standalone="no"?>
<!DOCTYPE svg PUBLIC "-//W3C//DTD SVG 20010904//EN"
 "http://www.w3.org/TR/2001/REC-SVG-20010904/DTD/svg10.dtd">
<svg version="1.0" xmlns="http://www.w3.org/2000/svg"
 width="900.000000pt" height="900.000000pt" viewBox="0 0 900.000000 900.000000"
 preserveAspectRatio="xMidYMid meet">
<metadata>
Created by potrace 1.16, written by Peter Selinger 2001-2019
</metadata>
<g transform="translate(0.000000,900.000000) scale(0.100000,-0.100000)"
fill="#000000" stroke="none">
<path d="M0 4500 l0 -4500 4500 0 4500 0 0 4500 0 4500 -4500 0 -4500 0 0
-4500z m4650 3960 c208 -24 313 -41 390 -65 47 -15 99 -30 115 -34 38 -10 104
-31 130 -42 20 -9 112 -43 215 -81 30 -11 65 -26 77 -34 13 -8 76 -42 140 -76
65 -34 127 -66 138 -72 52 -28 210 -165 280 -244 106 -118 260 -355 350 -537
81 -164 85 -173 139 -320 21 -55 41 -109 46 -120 5 -11 23 -56 41 -100 18 -44
38 -87 46 -96 10 -12 41 -18 131 -22 206 -11 314 -52 440 -165 79 -71 101
-140 117 -379 7 -98 2 -116 -83 -328 -9 -22 -66 -116 -127 -210 -94 -142 -129
-186 -216 -270 -57 -55 -124 -111 -149 -124 -25 -13 -71 -37 -103 -53 -55 -27
-58 -31 -53 -59 3 -16 8 -42 11 -57 4 -19 50 -72 140 -162 129 -129 135 -137
146 -190 6 -30 16 -75 22 -100 6 -28 11 -188 12 -415 l2 -370 28 -65 c16 -36
32 -69 37 -75 4 -5 8 -16 8 -25 0 -8 25 -47 55 -85 59 -74 63 -85 40 -129 -8
-15 -15 -35 -15 -43 0 -34 -34 -73 -102 -120 -40 -27 -115 -78 -165 -113 l-93
-63 0 -377 0 -377 -52 -6 c-28 -4 -54 -4 -57 -1 -3 3 -8 31 -11 62 l-5 57 -35
-3 c-40 -3 -50 -15 -50 -62 0 -19 -5 -51 -10 -71 l-10 -36 -72 -7 c-39 -3 -74
-4 -77 0 -3 3 -6 67 -6 142 l0 137 -40 -3 c-22 -2 -45 -9 -51 -15 -6 -7 -21
-73 -33 -147 -24 -144 -33 -165 -84 -176 -17 -3 -39 -11 -48 -17 -27 -17 -49
8 -50 57 0 22 -8 93 -17 156 l-17 115 -35 0 -35 0 0 -165 0 -165 -116 -3 -115
-3 -14 98 c-8 54 -14 105 -14 113 -1 17 -71 26 -113 15 -27 -6 -26 8 -8 -168
l7 -58 -88 3 c-99 3 -85 -10 -119 118 -29 112 -28 110 -84 110 -27 0 -52 -4
-55 -9 -3 -5 1 -50 10 -101 10 -60 12 -96 6 -102 -5 -5 -46 -12 -89 -15 l-80
-6 -18 117 -19 116 -55 -7 c-31 -3 -59 -11 -63 -17 -4 -6 -8 -45 -8 -87 0
-105 -6 -111 -105 -107 l-80 3 -10 125 -10 125 -30 0 c-34 0 -42 -20 -44 -110
-1 -27 -5 -55 -9 -62 -10 -16 -117 -29 -126 -15 -6 9 -30 114 -46 197 -7 35
-24 112 -50 225 -20 85 -34 126 -47 141 -8 9 -46 24 -86 33 -40 10 -92 23
-117 31 -25 7 -92 25 -150 40 -360 94 -406 108 -457 148 -23 17 -94 68 -158
112 l-115 79 0 71 0 71 140 100 141 99 -40 38 c-22 20 -44 37 -50 37 -5 0 -46
-42 -92 -92 -46 -51 -106 -115 -132 -143 l-48 -50 4 -58 c6 -71 25 -100 126
-190 42 -37 118 -107 169 -155 l93 -87 20 -150 c11 -82 24 -188 29 -235 22
-201 27 -221 61 -256 18 -19 36 -34 41 -34 4 0 31 -11 60 -24 29 -13 73 -31
98 -41 25 -10 54 -21 65 -25 11 -5 56 -22 100 -40 84 -33 98 -38 155 -63 60
-26 123 -38 184 -35 l58 3 17 43 c24 62 36 67 96 42 11 -5 41 -18 68 -29 l47
-20 0 -75 c0 -82 1 -83 60 -67 24 7 25 9 25 101 l0 95 73 3 c103 4 106 1 99
-120 -3 -54 -2 -99 1 -99 33 -7 73 -5 80 4 5 7 12 59 16 117 4 60 12 108 19
112 12 7 63 0 90 -14 14 -7 17 -23 17 -86 0 -42 3 -87 6 -99 7 -24 70 -51 85
-36 4 4 10 55 11 113 l3 105 98 9 c53 5 101 6 105 2 4 -4 9 -60 12 -124 l5
-117 35 3 c19 2 40 8 45 13 6 6 12 51 15 102 l5 92 75 13 c91 15 115 7 125
-40 45 -227 65 -276 102 -252 13 8 16 34 17 144 l1 135 93 3 c73 2 93 0 98
-12 3 -8 1 -48 -3 -90 -5 -42 -6 -80 -3 -86 8 -14 62 -22 77 -12 7 4 17 52 23
107 6 55 14 103 18 107 4 3 48 10 99 13 l92 7 6 -38 c4 -22 10 -52 15 -69 5
-16 12 -49 15 -72 7 -47 27 -59 69 -44 26 10 26 11 26 118 0 60 4 113 8 120 4
7 46 13 112 15 l105 3 5 -220 5 -220 88 -132 c48 -72 87 -139 87 -147 0 -8 -4
-25 -9 -38 -5 -13 -14 -41 -20 -64 -9 -35 -17 -44 -53 -59 -123 -51 -215 -85
-247 -91 -33 -7 -33 -8 -70 151 -10 44 -24 92 -30 108 -12 31 -36 36 -49 10
-9 -17 -2 -139 13 -234 l7 -46 -49 -36 c-26 -20 -70 -52 -96 -72 l-48 -36
-267 4 c-258 3 -272 4 -412 35 -80 18 -167 37 -195 42 -159 31 -202 42 -253
68 -72 36 -291 151 -391 204 -315 168 -303 163 -531 203 -52 9 -115 20 -140
25 -44 9 -138 26 -270 50 -36 7 -96 18 -135 25 -75 15 -185 35 -303 56 -45 8
-77 20 -82 29 -4 8 -33 94 -65 190 -31 96 -61 184 -66 195 -5 11 -34 97 -64
190 -31 94 -60 179 -65 190 -5 11 -57 164 -115 340 -167 502 -180 535 -206
535 -23 0 -28 -18 -17 -55 15 -49 59 -207 68 -245 8 -33 44 -166 75 -275 54
-191 54 -190 28 -182 -18 6 -150 44 -253 73 -30 8 -77 22 -105 30 -27 8 -86
24 -130 36 -44 11 -96 33 -116 47 -20 14 -107 94 -193 176 -114 109 -190 191
-274 300 -63 83 -125 161 -138 175 -12 14 -25 39 -28 55 -5 27 -52 382 -76
585 -5 41 -14 113 -20 159 -9 66 -8 121 4 255 9 94 18 216 21 271 12 232 16
257 52 339 41 91 48 76 -82 164 -51 34 -148 117 -221 189 l-132 128 -42 123
c-48 137 -47 119 -11 361 11 74 24 138 29 143 5 5 71 55 147 112 109 82 150
107 199 120 33 10 84 24 111 31 28 8 71 20 97 26 58 14 69 26 79 87 20 115 70
336 90 389 11 32 27 76 34 98 8 22 28 78 45 125 17 47 35 99 40 115 15 58 31
87 103 198 41 62 91 139 112 172 40 64 57 83 289 329 141 149 156 162 231 197
206 96 334 149 358 149 7 0 84 18 171 39 150 38 261 55 516 81 63 6 124 13
135 14 50 7 558 4 625 -4z"/>
<path d="M3954 8270 c-19 -8 -99 -19 -279 -41 -44 -5 -87 -11 -95 -14 -8 -2
-58 -9 -110 -15 -63 -7 -113 -19 -150 -37 -30 -14 -107 -50 -170 -80 -63 -31
-124 -59 -135 -63 -11 -4 -79 -56 -150 -114 -72 -59 -173 -143 -226 -186 -72
-59 -107 -97 -138 -147 -23 -38 -73 -117 -112 -177 -74 -114 -80 -128 -125
-271 -15 -49 -44 -142 -65 -205 -64 -198 -71 -168 76 -325 74 -78 174 -171
239 -221 107 -83 135 -100 296 -186 41 -23 93 -51 115 -63 23 -12 133 -52 245
-88 159 -51 232 -69 325 -81 393 -49 645 -62 931 -48 126 5 262 11 302 12 39
0 98 5 130 10 31 6 84 10 117 10 64 1 353 34 420 48 41 9 103 25 165 42 19 5
76 19 125 31 50 12 117 36 150 54 192 104 168 88 303 209 87 77 137 132 236
265 69 93 126 174 126 182 0 8 -14 52 -31 99 -17 47 -37 105 -46 130 -46 133
-79 200 -172 350 -56 91 -121 185 -144 210 -23 25 -89 101 -147 168 -113 133
-89 115 -402 301 -77 45 -196 94 -293 121 -16 4 -106 34 -200 66 l-170 58
-460 3 c-253 1 -469 -2 -481 -7z"/>
<path d="M6602 6516 c-12 -27 -260 -357 -301 -401 -16 -16 -64 -49 -107 -72
-101 -55 -204 -111 -274 -150 -32 -18 -102 -42 -170 -58 -245 -57 -277 -64
-350 -79 -41 -9 -131 -20 -200 -26 -69 -6 -181 -15 -249 -21 -165 -14 -1157
-7 -1226 8 -27 7 -102 19 -165 28 -222 32 -306 47 -395 71 -49 14 -108 29
-130 35 -135 35 -215 69 -437 192 -149 81 -355 236 -453 340 -50 53 -96 97
-101 97 -9 0 -20 -22 -50 -100 -9 -25 -34 -63 -55 -85 -22 -23 -39 -48 -39
-58 0 -9 55 -84 123 -166 106 -129 145 -167 280 -276 l156 -127 158 -53 c198
-66 341 -109 418 -125 33 -7 83 -18 110 -25 58 -15 160 -28 400 -50 94 -9 202
-21 240 -27 101 -16 958 -22 1087 -8 57 6 153 15 213 21 93 8 194 28 415 79
19 4 61 13 93 20 32 6 95 25 140 41 45 17 93 34 107 39 14 4 63 22 110 39 47
18 105 39 130 48 64 22 69 25 229 132 182 121 261 208 346 378 30 62 55 125
55 140 0 16 -12 57 -26 93 -58 145 -62 150 -82 106z"/>
<path d="M6910 6468 c0 -7 7 -53 15 -103 23 -140 21 -159 -36 -293 l-50 -120
-155 -143 c-85 -79 -167 -149 -182 -156 -76 -34 -148 -65 -252 -108 -63 -26
-119 -52 -124 -56 -6 -5 -16 -9 -22 -9 -7 0 -42 -13 -77 -30 -36 -16 -68 -30
-71 -30 -6 0 -111 -45 -136 -59 -18 -10 -131 -35 -225 -51 -74 -12 -200 -35
-275 -50 -25 -5 -88 -16 -140 -25 -52 -9 -127 -23 -167 -31 -121 -23 -461 -41
-898 -46 -5 0 -136 5 -289 11 -324 13 -391 21 -531 61 -16 5 -46 11 -65 15
-19 3 -53 10 -75 15 -205 48 -276 66 -375 97 -63 19 -128 39 -145 43 -95 26
-141 45 -201 85 -37 25 -69 45 -72 45 -3 0 -13 6 -21 14 -9 8 -27 21 -41 28
-206 112 -401 299 -485 466 -43 85 -50 106 -53 172 -2 41 -7 79 -12 83 -7 8
-139 -32 -191 -59 -43 -21 -144 -139 -157 -181 -38 -131 -38 -129 18 -308 30
-98 34 -103 157 -233 106 -113 117 -121 294 -227 172 -103 567 -306 634 -327
39 -12 330 -88 375 -98 19 -5 60 -16 90 -25 80 -25 195 -43 344 -55 72 -6 210
-17 306 -25 205 -17 1133 -21 1300 -6 58 6 170 15 250 21 268 20 348 31 442
56 51 14 109 29 128 34 19 5 78 21 130 35 52 15 118 33 145 40 28 8 64 18 80
24 49 16 225 81 340 126 39 14 82 30 98 35 31 10 106 51 215 118 58 35 96 72
190 179 154 178 217 256 234 290 8 15 32 58 52 96 70 124 93 274 65 404 -10
47 -24 71 -68 123 -69 80 -65 78 -181 117 -102 36 -130 40 -130 21z"/>
<path d="M6420 4748 c-113 -10 -116 -10 -197 -59 -51 -31 -98 -69 -125 -102
-24 -29 -70 -83 -102 -121 l-57 -69 6 -76 c6 -64 22 -137 75 -336 5 -16 16
-57 25 -90 10 -33 21 -76 25 -95 16 -69 41 -154 53 -178 12 -25 228 -143 284
-156 29 -6 170 -35 214 -43 22 -4 36 7 100 77 87 95 98 115 145 257 l35 108
-6 180 c-4 99 -11 218 -16 265 -5 47 -9 110 -9 141 0 66 0 65 -130 173 -52 44
-99 84 -105 91 -21 23 -60 45 -80 44 -11 -1 -72 -6 -135 -11z"/>
<path d="M4385 4590 c-76 -10 -298 -31 -390 -36 -66 -4 -72 -6 -100 -41 -16
-19 -72 -85 -122 -146 -69 -81 -93 -118 -93 -138 0 -16 -6 -48 -14 -71 -31
-91 -30 -146 2 -238 17 -47 33 -99 37 -116 3 -18 23 -51 43 -75 32 -38 242
-279 278 -318 8 -8 33 -16 56 -17 24 -1 104 -7 178 -13 230 -19 582 -41 651
-41 47 0 70 4 79 15 7 8 16 15 20 15 4 0 54 31 112 69 106 70 110 74 178 196
12 22 34 60 48 84 l26 44 -3 301 c-2 267 -4 302 -19 311 -9 6 -88 47 -175 92
-122 63 -170 83 -210 86 -127 12 -288 28 -357 37 -84 11 -137 11 -225 0z"/>
<path d="M5715 3901 c-47 -12 -73 -24 -80 -37 -6 -10 -29 -50 -52 -89 -41 -70
-48 -93 -58 -215 -9 -93 -21 -132 -76 -242 -27 -54 -49 -104 -49 -113 0 -11
11 -15 44 -15 38 0 48 5 79 39 29 32 37 51 47 112 16 104 27 123 72 127 32 3
39 -1 52 -27 9 -16 16 -37 16 -46 0 -16 23 -95 42 -147 9 -24 16 -28 48 -28
34 0 38 3 44 31 3 17 6 55 6 84 0 56 8 65 56 65 44 0 64 -19 101 -96 20 -41
42 -74 49 -74 13 0 54 46 54 61 0 5 -41 93 -91 196 -84 173 -107 221 -168 355
-20 46 -46 79 -59 77 -4 0 -38 -9 -77 -18z"/>
</g>
</svg>
