<?xml version="1.0" encoding="UTF-8" standalone="no"?>
<svg
   xmlns:dc="http://purl.org/dc/elements/1.1/"
   xmlns:cc="http://creativecommons.org/ns#"
   xmlns:rdf="http://www.w3.org/1999/02/22-rdf-syntax-ns#"
   xmlns:svg="http://www.w3.org/2000/svg"
   xmlns="http://www.w3.org/2000/svg"
   version="1.1"
   id="svg917"
   width="981"
   height="966"
   viewBox="0 0 981 966">
  <metadata
     id="metadata923">
    <rdf:RDF>
      <cc:Work
         rdf:about="">
        <dc:format>image/svg+xml</dc:format>
        <dc:type
           rdf:resource="http://purl.org/dc/dcmitype/StillImage" />
        <dc:title></dc:title>
      </cc:Work>
    </rdf:RDF>
  </metadata>
  <defs
     id="defs921" />
  <g
     id="g925">
    <path
       style="fill:none;stroke:#000000;stroke-width:1px;stroke-linecap:butt;stroke-linejoin:miter;stroke-opacity:1"
       d="m 4.7629372,215.17807 c -3.1604285,19.11473 12.2228198,73.04739 35.4287088,92.12343 28.466631,23.40056 121.066494,82.65029 121.066494,82.65029 0,0 -117.012063,99.14974 -134.159135,184.84207 -17.1470722,85.69233 4.532547,210.44051 54.931636,262.7274 50.399089,52.2869 154.533329,128.36622 321.191649,126.18823 166.65833,-2.17799 348.12224,-7.42174 474.11615,-146.77122 125.99386,-139.34948 125.05216,-294.2945 84.90452,-384.7931 -40.14768,-90.49861 -87.3579,-140.58238 -108.47543,-140.58238 -21.11752,0 -77.08516,109.72197 -145.10233,117.48393 -68.01716,7.76195 -173.49067,-1.02443 -173.49067,-1.02443 0,0 66.22641,-91.6176 69.3378,-163.63312 C 607.62371,172.37365 547.33995,52.24221 454.09358,14.70859 360.84721,-22.825031 262.83354,18.785858 238.61522,39.246703 214.39689,59.707548 187.81048,81.327574 176.03898,100.2843 138.44354,160.8277 157.25341,161.0327 78.35771,155.91604 49.388368,154.03728 32.426877,163.65853 19.469262,174.26918 2.6427274,188.04799 4.9296238,214.16992 4.7629372,215.17807 Z"
       id="path1490" />
  </g>
</svg>
