<?xml version="1.0" encoding="UTF-8" standalone="no"?>
<svg
   xmlns:dc="http://purl.org/dc/elements/1.1/"
   xmlns:cc="http://creativecommons.org/ns#"
   xmlns:rdf="http://www.w3.org/1999/02/22-rdf-syntax-ns#"
   xmlns:svg="http://www.w3.org/2000/svg"
   xmlns="http://www.w3.org/2000/svg"
   version="1.1"
   id="svg2"
   width="981"
   height="966"
   viewBox="0 0 981 966">
  <metadata
     id="metadata8">
    <rdf:RDF>
      <cc:Work
         rdf:about="">
        <dc:format>image/svg+xml</dc:format>
        <dc:type
           rdf:resource="http://purl.org/dc/dcmitype/StillImage" />
        <dc:title></dc:title>
      </cc:Work>
    </rdf:RDF>
  </metadata>
  <defs
     id="defs6" />
  <g
     id="g10">
    <path
       style="fill:none;stroke:#000000;stroke-opacity:1"
       d="m 389.57436,966.14106 c -49.6757,-2.62931 -97.1087,-8.7921 -123.50001,-16.04586 -51.69984,-14.20993 -97.12309,-36.8256 -135.5,-67.46374 -14.52725,-11.59781 -37.813167,-35.12533 -48.913257,-49.42077 -34.16888,-44.00497 -53.85125,-91.3391 -60.09445,-144.52123 -2.15475,-18.35503 -2.14741,-53.01767 0.0153,-72.45786 6.4545,-58.01706 27.64988,-108.42421 66.8553,-158.99621 11.734147,-15.13615 35.782077,-38.8834 50.137067,-49.51017 14.22228,-10.52853 21.5,-16.41427 21.5,-17.38778 0,-0.95976 -12.47107,-8.29703 -29.97142,-17.63348 -23.95713,-12.78115 -36.839297,-20.95869 -56.028577,-35.56663 -38.22048,-29.09556 -58.90711,-55.46022 -68.5981299,-87.42681 -2.38185,-7.8567 -2.73074,-10.7287 -2.79148,-22.97892 -0.0582,-11.72812 0.30101,-15.2909 2.21326,-21.95493 6.8154899,-23.75142 21.8966799,-37.53958 46.6771399,-42.67514 8.87952,-1.84022 12.23878,-2.00829 29.99921,-1.50093 11,0.31424 25.399997,1.00508 31.999997,1.53522 14.85464,1.19316 19.68132,0.29698 26.76381,-4.96933 6.62063,-4.92288 15.97657,-16.44556 22.32154,-27.49096 13.49615,-23.49428 21.35523,-34.665901 35.38714,-50.302607 29.07728,-32.402774 72.2288,-58.416893 114.68756,-69.139983 21.9494,-5.5433847 30.553,-6.5048095 57.84,-6.4633685 27.7733,0.04218 37.5925,1.3134795 62.2675,8.0617965 84.9789,23.240725 150.0778,93.483212 167.9667,181.238022 2.5528,12.52312 2.5242,66.39935 -0.044,83.16221 -3.794,24.76206 -10.4447,44.23067 -21.9991,64.39849 -6.8857,12.01877 -11.626,19.07498 -28.6191,42.60151 -9.9884,13.82869 -15.7431,23.77847 -14.4297,24.9487 0.7972,0.71034 21.0294,4.93121 34.1363,7.12158 24.8039,4.14514 61.929,5.87513 86.2215,4.01784 55.8796,-4.27229 93.7111,-17.81264 124.1705,-44.44202 11.2808,-9.86243 22.2073,-23.10508 37.1081,-44.97412 19.5628,-28.71132 26.4208,-35.01249 38.2214,-35.11822 10.49655,-0.0941 21.54225,7.27175 42.52965,28.36074 44.2016,44.41546 72.4193,109.27667 81.6085,187.5855 2.1536,18.35225 2.448,65.00047 0.5208,82.5 -9.8791,89.70279 -41.3548,161.18563 -97.8689,222.26507 -83.47665,90.22005 -210.09405,139.74433 -385.29005,150.69981 -18.7415,1.17196 -84.9562,1.13782 -107.5,-0.0554 z"
       id="path14" />
  </g>
  <g
     id="layer1" />
</svg>
