<?xml version="1.0" encoding="UTF-8" standalone="no"?>
<!-- Created with Inkscape (http://www.inkscape.org/) -->

<svg
   width="210mm"
   height="297mm"
   viewBox="0 0 210 297"
   version="1.1"
   id="svg5"
   xml:space="preserve"
   inkscape:version="1.2.2 (732a01da63, 2022-12-09)"
   sodipodi:docname="minion-inkscape-text.svg"
   inkscape:export-filename="..\..\..\Programming\Python\fourier-series\svgs\minion-text.svg"
   inkscape:export-xdpi="96"
   inkscape:export-ydpi="96"
   xmlns:inkscape="http://www.inkscape.org/namespaces/inkscape"
   xmlns:sodipodi="http://sodipodi.sourceforge.net/DTD/sodipodi-0.dtd"
   xmlns="http://www.w3.org/2000/svg"
   xmlns:svg="http://www.w3.org/2000/svg"><sodipodi:namedview
     id="namedview7"
     pagecolor="#ffffff"
     bordercolor="#000000"
     borderopacity="0.25"
     inkscape:showpageshadow="2"
     inkscape:pageopacity="0.0"
     inkscape:pagecheckerboard="0"
     inkscape:deskcolor="#d1d1d1"
     inkscape:document-units="mm"
     showgrid="false"
     inkscape:zoom="3.9710673"
     inkscape:cx="441.94668"
     inkscape:cy="365.8966"
     inkscape:window-width="1920"
     inkscape:window-height="986"
     inkscape:window-x="-11"
     inkscape:window-y="-11"
     inkscape:window-maximized="1"
     inkscape:current-layer="layer1" /><defs
     id="defs2" /><g
     inkscape:label="Layer 1"
     inkscape:groupmode="layer"
     id="layer1"><path
       d="m 137.30401,109.33814 h 4.96707 v 1.78594 h -1.37804 v 7.13824 h -2.32062 v -7.13824 h -1.37252 v -1.78594 l -0.34727,0.0416 -0.81029,3.90506 1.2237,4.97748 h -2.14974 c -0.25723,-0.88929 -0.49242,-1.97151 -0.70556,-3.24666 -0.0588,0.56224 -0.13964,1.15939 -0.24253,1.79145 l -0.22049,1.45521 h -2.25998 l 0.83784,-4.97748 -0.83784,-3.9467 -0.35829,0.025 v 1.76095 h -1.54892 v 1.69223 h 1.4497 v 1.69774 h -1.4497 v 1.96233 h 1.70326 v 1.78594 h -4.02388 v -8.92418 h -0.52917 v 1.78594 h -1.37804 v 7.13824 h -2.32062 v -7.13824 h -1.37253 v -1.76928 l -2.52457,-0.0167 v 8.92418 h -2.02847 v -6.02479 l -0.81029,6.02479 h -1.43867 l -0.85439,-5.88698 v 5.88698 h -2.02847 v -7.17302 l -0.9316,0.0516 c 0.0441,0.36748 0.0662,0.97726 0.0662,1.89595 l -0.00001,1.52686 c 0,0.89665 -0.0221,1.53238 -0.0662,1.90721 -0.0404,0.37115 -0.17269,0.71107 -0.39687,1.01975 -0.22049,0.30868 -0.51998,0.5457 -0.89848,0.71107 -0.37851,0.16536 -0.81948,0.24804 -1.32292,0.24804 -0.47772,0 -0.90767,-0.0772 -1.28985,-0.23151 -0.3785,-0.15801 -0.68351,-0.3932 -0.91502,-0.70555 -0.23151,-0.31236 -0.36931,-0.65228 -0.41341,-1.01975 -0.0441,-0.36748 -0.0661,-1.01057 -0.0661,-1.92926 v -1.52686 c 0,-0.89665 0.016,-1.50973 0.0564,-1.88088 l -0.51945,-0.0318 h -1.37804 v 7.13824 h -2.32062 v -7.13824 h -1.37253 v -1.78594 l -0.13225,-0.00004 v 1.78594 h -1.378036 v 7.13824 H 96.57529 v -7.13824 h -1.372527 l -0.534692,-0.0165 c 0.0441,0.36748 0.06615,1.01057 0.06615,1.92926 l 0.000000008,1.52686 c 0,0.89665 -0.02205,1.53238 -0.06615,1.90721 -0.04042,0.37115 -0.172712,0.71107 -0.396875,1.01975 -0.220487,0.30868 -0.519981,0.5457 -0.898482,0.71107 -0.378501,0.16536 -0.819474,0.24804 -1.322918,0.24804 -0.47772,0 -0.907668,-0.0772 -1.289845,-0.23151 -0.378501,-0.15801 -0.683507,-0.3932 -0.915018,-0.70555 -0.231511,-0.31236 -0.369315,-0.65228 -0.413412,-1.01975 -0.0441,-0.36748 -0.06615,-1.01057 -0.06615,-1.92926 v -1.52686 c 0,-0.89665 0.02021,-1.53055 0.06063,-1.9017 0.0441,-0.37483 0.170503,-0.70775 0.390986,-1.01643 l -1.730429,0.0848 c 0.231511,0.34543 0.347266,0.90399 0.347266,1.67569 0,0.52182 -0.08268,0.88562 -0.248047,1.09141 -0.16169,0.20579 -0.483233,0.3638 -0.964628,0.47405 0.536517,0.12127 0.90032,0.32338 1.091408,0.60633 0.191088,0.27929 0.286632,0.70924 0.286632,1.28985 v 0.82682 c 0,0.60267 -0.06982,1.04915 -0.209462,1.33946 -0.135967,0.29031 -0.354616,0.48874 -0.655947,0.59531 -0.301331,0.10657 -0.918693,0.15985 -1.852085,0.15985 h -2.684421 v -8.92418 h 2.315106 l 0.0055,1.03919 -0.00000004,2.23184 v 4.12631 c 0.327055,-0.011 0.534679,-0.0624 0.622873,-0.15434 0.09187,-0.0919 0.137804,-0.31786 0.137804,-0.67799 v -0.83234 c 0,-0.38217 -0.04042,-0.61368 -0.121267,-0.69453 -0.08085,-0.0808 -0.293982,-0.12678 -0.63941,-0.1378 v -1.38907 c 0.09922,-0.004 0.176389,-0.006 0.23151,-0.006 0.227836,0 0.37299,-0.0551 0.435461,-0.16536 0.06247,-0.11392 0.09371,-0.43546 0.09371,-0.96463 0,-0.27929 -0.02572,-0.47405 -0.07717,-0.58429 -0.05145,-0.11392 -0.11943,-0.18558 -0.20395,-0.21498 -0.08084,-0.0294 -0.240697,-0.0459 -0.479557,-0.0496 l 0.03614,-1.52641 c 0.73128,0 1.242691,0.057 1.617518,0.17087 0.378501,0.11392 0.674673,0.33365 0.906184,0.68276 l 1.745152,-0.0819 c 0.224161,-0.30868 0.525493,-0.5457 0.903994,-0.71107 0.378501,-0.16537 0.819474,-0.24805 1.322918,-0.24805 l -0.01812,1.51038 c -0.121267,0 -0.185824,0.0478 -0.25197,0.14331 -0.06247,0.0919 -0.09371,0.36748 -0.09371,0.82682 v 4.1672 c 0,0.51814 0.02021,0.83784 0.06063,0.95911 0.0441,0.12127 0.143319,0.1819 0.297657,0.1819 0.158015,0 0.259072,-0.0698 0.303169,-0.20946 0.0441,-0.13964 0.06615,-0.47221 0.06615,-0.9977 l 0.000005,-4.10105 c 0,-0.41525 -0.02389,-0.67983 -0.07166,-0.79375 -0.0441,-0.11759 -0.137807,-0.17638 -0.281121,-0.17638 l 0.0431,-1.50618 c 0.477721,0 0.851697,0.0748 1.230198,0.23287 0.382176,0.15434 0.689019,0.38769 0.92053,0.70004 0.231511,0.31235 0.363426,0.63755 0.407523,1.00503 l 0.540581,-0.0394 v -1.71527 l 5.159404,0.000002 5.11523,0.000002 1.25704,-0.90774 c -0.0707,-0.16489 0.87157,-1.93163 0.87157,-1.93163 l 2.28499,-1.24849 c 0,0 -3.10945,1.79029 -3.13301,0.70669 -0.0236,-1.0836 0.11777,-1.8374 0.11777,-1.8374 l 2.68544,0.16489 c 0,0 -3.76903,-0.11778 -5.06463,-1.57828 -1.29561,-1.4605 -1.36629,-4.21661 -1.36629,-4.21661 0,0 0.30625,1.107154 0.82448,0.918702 0.51824,-0.188451 0.30624,-3.321461 -0.32979,-3.439245 -0.63602,-0.117782 0.19388,2.691029 -0.65369,2.173085 -1.02824,-0.628349 -2.92689,2.302648 -1.91396,3.244908 1.01292,0.94225 1.48405,1.8374 1.36627,2.96811 -0.11778,1.13071 -0.70669,-1.0836 -0.70669,-1.0836 l 0.56535,1.43695 c 0,0 -2.426312,0.58891 -2.756102,0.9187 -0.329791,0.32979 -3.109455,1.0836 -2.120083,-0.68314 0.989372,-1.76673 3.580585,-2.99167 3.580585,-2.99167 l -1.860962,1.10716 c 0,0 -1.154267,-2.0023 -0.353347,-2.87389 0.80092,-0.871593 1.743189,-2.143643 2.143649,-2.614772 0.40046,-0.47113 1.8374,-0.848033 1.93163,-1.648953 0.0942,-0.800921 -0.11779,-1.837405 0.30623,-2.049414 0.42402,-0.212008 2.19074,1.319163 2.33208,2.190752 0.14134,0.87159 0.25912,2.049413 0.94227,2.143639 0.68313,0.09423 2.49698,0.353347 2.49698,0.353347 l -2.63832,-0.40046 c 0,0 -0.63603,-0.80092 -0.65959,-1.295606 -0.0236,-0.494686 -0.54179,-1.719622 -0.87159,-1.93163 -0.32979,-0.212009 -0.96581,-0.87159 -1.17781,-0.895146 -0.21202,-0.02356 -0.63604,0.32979 -0.63604,0.32979 l -0.23556,-1.036489 c 0,0 -0.40046,-5.535771 -0.35335,-5.912672 0.0471,-0.376905 2.66188,-0.73025 3.03879,-0.753809 0.3769,-0.02355 1.31916,-0.188452 1.31916,-0.188452 0,0 -0.32979,-1.366274 -0.21201,-1.648952 0.11778,-0.282678 -2.37921,0.04711 -3.10946,0.706694 -0.73025,0.659582 -1.24849,0.918702 -1.24849,0.918702 l 0.14134,1.036484 c 0,0 -0.0942,-3.53347 0.0707,-4.098824 0.16489,-0.565355 1.81385,-4.687735 3.34502,-5.535765 1.36392,-0.755401 5.99884,-2.239774 7.17826,-2.338589 l 0.25906,-1.836621 -1.20624,-4.051236 v 4.056949 h -2.27378 -4.35735 -0.93156 -2.32061 v -3.748268 h -0.69454 v 3.748268 h -3.06751 -3.646293 c -0.264583,-1.37069 -0.497931,-2.928794 -0.700044,-4.674311 -0.09187,0.745979 -0.306844,2.304082 -0.644923,4.674311 h -2.882858 l -1.036286,-8.924185 h 2.254473 l 0.237022,3.11437 0.242535,3.004126 c 0.08452,-1.554429 0.297657,-3.593927 0.639411,-6.118496 h 2.414325 c 0.03307,0.260909 0.117593,1.242073 0.253559,2.943493 l 0.25356,3.389977 c 0.128617,-2.157091 0.343591,-4.268248 0.644922,-6.33347 h 2.254473 l -1.026357,8.894739 1.487907,0.0059 0.0015,-8.900629 h 2.320614 v 3.19154 h 0.69454 v -3.19154 h 2.32061 v 8.896076 l 0.93572,0.0052 -0.006,-8.921062 3.87161,0.01978 v 1.785939 h -1.54891 v 1.692233 h 1.4497 v 1.697745 h -1.4497 v 1.962328 h 1.70325 v 1.78594 h 0.66697 v -8.924185 h 1.94028 l 1.30087,4.018364 v -4.018364 h 1.94028 v 8.924185 l 3.89683,-0.0000004 v -7.138246 h -1.37253 v -1.785939 h 5.07119 v 1.785939 h -1.37804 v 7.138246 h 1.90721 v -8.924185 h 2.32061 v 3.19154 h 0.69454 v -3.19154 h 2.32061 v 8.922713 l 0.93152,0.0015 V 64.76049 h 3.86954 v 1.785939 h -1.54892 v 1.692233 h 1.4497 v 1.697745 h -1.4497 v 1.962328 h 1.70326 v 1.78594 h -4.53603 -2.74002 v -3.748268 h -0.69454 v 3.748268 h -3.3066 l -5.30804,0.000002 -3.88817,-0.01178 -0.24763,1.843289 c 0.25913,0.306236 1.80796,1.065936 1.90219,1.913966 0.0942,0.84803 -0.3769,1.03649 -0.3769,1.03649 0,0 -4.33439,-2.5441 -5.01753,-2.44988 -0.68314,0.0942 -2.49699,1.06004 -2.92101,1.71963 -0.42401,0.65958 2.19076,-0.61247 3.39214,-0.73025 1.20138,-0.11779 5.22954,-0.42402 6.19535,1.53117 0.96582,1.95518 1.83741,5.936223 1.83741,5.936223 l -2.42632,0.518242 c 0,0 -0.73025,-2.968115 -2.94456,-2.920995 -2.21431,0.0471 -2.99167,-0.0707 -3.81615,0.40046 -0.82448,0.47112 -2.40276,1.860953 -2.21431,3.227229 0.18846,1.366274 1.17783,2.59121 1.97875,2.850333 0.80092,0.259122 5.11175,0.612468 5.70066,0.117782 0.58892,-0.494687 1.57828,-2.473429 1.24849,-3.651253 -0.32978,-1.177824 -3.58058,-1.036484 -4.00459,-0.848032 -0.42402,0.18845 -2.07297,0.235564 -2.02586,1.53117 0.0471,1.295607 1.90807,1.319163 2.19075,1.319163 0.28268,0 1.97874,-0.376905 1.93163,-1.272051 -0.0471,-0.895146 -1.27205,-1.60184 -2.09652,-1.554726 -0.82448,0.04711 -2.35565,0.25912 -2.87389,1.507614 -0.51825,1.248492 0.54179,2.520543 1.17782,2.496984 0.63602,-0.02355 0.30623,0.212011 2.19075,0.04711 1.88452,-0.164897 3.03879,-1.036484 3.29791,-1.224936 0.25912,-0.188453 2.63832,-0.164897 2.63832,-0.164897 0,0 0.23557,-1.719622 0.0942,-2.379202 -0.14134,-0.659582 -0.11778,2.025857 -0.47113,3.486357 -0.15137,0.625654 -0.28112,1.40261 -0.37445,2.193829 -0.0121,0.102301 -1.43309,0.68418 -3.07857,0.822308 -2.10354,0.176581 -6.56986,-0.08816 -6.58153,0.04204 -0.0122,0.136571 4.30003,0.610731 6.42798,0.403355 1.59918,-0.155844 3.1909,-1.034931 3.19542,-0.855207 0.0284,1.12827 -0.12937,2.074593 -0.10709,2.505432 0.0707,1.366274 4.49928,4.829077 4.66418,5.111752 0.16489,0.282679 -0.18845,1.177825 -0.32979,1.272051 -0.14134,0.09423 0.35334,-1.272051 0.5418,-1.319162 0.18845,-0.04711 2.26142,0.541797 2.40276,1.107154 0.14133,0.565356 -0.44758,1.648961 -1.01293,2.120091 -0.56536,0.47113 -1.76674,0.96581 -2.14364,0.25912 -0.3769,-0.70669 0.11778,-1.24849 -0.40046,-2.025865 -0.51824,-0.777362 -1.06004,-1.743179 -1.43695,-1.86096 -0.3769,-0.117782 -1.48405,-0.565357 -1.50761,-0.871591 -0.0236,-0.306234 -0.82448,-3.345018 -0.77736,-3.627697 0.0471,-0.282675 0.77736,3.674811 0.77736,3.674811 0,0 -2.61477,0.25912 -4.07527,0.942258 -1.4605,0.683139 -4.73485,0.636027 -4.73485,0.636027 0,0 -0.0707,3.533477 0.47113,4.405067 0.5418,0.87159 3.03878,0.80092 3.62769,0.61247 0.58892,-0.18846 2.52055,-1.15427 2.28498,-4.075279 -0.23556,-2.921003 -0.212,-2.049412 -0.212,-2.049412 0,0 2.54409,-0.895146 2.61476,-0.376904 0.0707,0.518242 0.21201,2.756106 -0.25912,3.651255 -0.47113,0.89515 -0.40046,1.76674 -0.82447,2.02586 -0.42402,0.25912 0.212,0.63602 0.70669,1.15427 0.49469,0.51824 1.06004,0.80092 1.53117,0.98937 0.47113,0.18845 1.0836,1.36628 -0.61247,1.86096 -1.69606,0.49469 -3.80584,0.82448 -3.80584,0.82448 h -0.0341 c 0,0 -1.17782,-0.5418 -0.32979,-1.67251 0.84803,-1.13071 3.18012,-1.57828 3.18012,-1.57828 0,0 -2.30853,1.17782 -2.28498,0.80092 0.0236,-0.37691 -0.0471,-1.15427 -0.0471,-1.15427 0,0 0.40046,-0.65958 0.96582,-0.9187 0.56535,-0.25913 -4.78197,1.38983 -5.44155,1.41338 -0.65958,0.0236 -0.75381,0.7067 -0.40046,0.82448 0.35335,0.11778 2.66188,1.24849 2.66188,1.53117 0,0.28268 -2.16719,1.13071 -2.82677,1.27205 -0.65959,0.14134 -3.05058,0.59186 -3.12124,0.42696 l -1.26881,0.89593 v 1.7504 l 0.52365,0.0318 c 0.0441,-0.37483 0.17636,-0.71658 0.39688,-1.02526 0.22416,-0.30868 0.52549,-0.5457 0.90399,-0.71107 0.3785,-0.16537 0.81947,-0.24805 1.32292,-0.24805 l -0.01,1.51034 c -0.12127,0 -0.19415,0.0478 -0.2603,0.14331 -0.0625,0.0919 -0.0937,0.36748 -0.0937,0.82682 v 4.1672 c 0,0.51814 0.0202,0.83784 0.0606,0.95911 0.0441,0.12127 0.14329,0.1819 0.29766,0.1819 0.15801,0 0.25907,-0.0698 0.30316,-0.20946 0.0441,-0.13964 0.0661,-0.47221 0.0661,-0.9977 l 0.000012,-4.10105 c 0,-0.41525 -0.0239,-0.67983 -0.0717,-0.79375 -0.0441,-0.11759 -0.13777,-0.17638 -0.28112,-0.17638 l 0.0162,-1.51242 c 0.47772,0 0.87876,0.0811 1.25726,0.23911 0.38218,0.15434 0.68902,0.38769 0.92053,0.70004 0.23151,0.31235 0.36932,0.65227 0.41341,1.01975 l 0.9316,-0.064 v -1.70536 h 3.00413 c 0.0882,0.53651 0.1819,1.16857 0.28112,1.89618 l 0.3197,2.27101 0.52917,-4.16719 4.7269,-0.00002 6.20547,-0.00002 h 4.3091 2.38095 c 0.0404,0.24621 0.12125,0.65594 0.24254,1.22921 0.0956,0.4373 0.17455,0.83785 0.23702,1.20165 l 0.4961,-2.43086 h 1.94579 z"
       id="path947"
       style="font-size:11.2889px;font-family:Impact;-inkscape-font-specification:Impact;fill:none;stroke:#b639a9;stroke-width:0.264583"
       sodipodi:nodetypes="ccccccccccccccccccccccccccccccccccccccccccccccccccssccsscscssccccccccccccccccssccsscsssscccscccsscsscccccccsssccscscccccccscccsscssssccccscccccccccccscsssssccssccsscssscccssccsscssccsscccccccccccccccccccccccccccccccccccccccccccccccccccccccccccccccccccccccccccccccccccccccccccccssssccscsssssssssssssccsssssscsssssssscscscssscssssssccscccscssscccccscccsscssccccccscccccccccccccccc" /></g></svg>
